# ProBuilder 4.5.2
# https://unity3d.com/unity/features/worldbuilding/probuilder
# 09.01.2022 23:03:08

mtllib ./Cell.mtl
o Cell

g Cylinder
v 0 0 0
v 0 0.1 0
v 0.29 0 0.5022947
v 0.29 0.1 0.5022947
v 0.87 0 0.5022947
v 0.87 0.1 0.5022947
v 1.16 0 -5.070521E-08
v 1.16 0.1 -5.070521E-08
v 0.8699999 0 -0.5022947
v 0.8699999 0.1 -0.5022947
v 0.2900001 0 -0.5022947
v 0.2900001 0.1 -0.5022947
v 0.58 0 0
v 0.58 0.1 0

vt 0 0
vt 0 0.1
vt 0.58 0
vt 0.58 0.1
vt 0.29 0
vt 0.29 0.1
vt 0.87 0
vt 0.87 0.1
vt -0.5800002 0
vt -0.5800002 0.1
vt -0.8699999 0
vt -0.8699999 0.1
vt -0.2900001 0
vt -0.2900001 0.1
vt 0.29 0.5022947
vt -0.58 0
vt -0.29 0.5022947
vt 0.87 0.5022947
vt -0.87 0.5022947
vt 1.16 -5.070521E-08
vt -1.16 -5.070521E-08
vt 0.8699999 -0.5022947
vt -0.8699999 -0.5022947
vt 0.2900001 -0.5022947
vt -0.2900001 -0.5022947

vn -1 0 -3.441276E-08
vn -0.5 0 0.8660254
vn 0.5000001 0 0.8660254
vn 1 0 -1.37651E-07
vn 0.4999999 0 -0.8660254
vn -0.5 0 -0.8660254
vn 0 -1 0
vn 0 1 0

usemtl ProBuilderDefault
f 1/1/7 13/3/7 3/15/7
f 3/15/7 13/3/7 5/18/7
f 5/18/7 13/3/7 7/20/7
f 7/20/7 13/3/7 9/22/7
f 9/22/7 13/3/7 11/24/7
f 11/24/7 13/3/7 1/1/7
f 4/17/8 14/16/8 2/1/8
f 6/19/8 14/16/8 4/17/8
f 8/21/8 14/16/8 6/19/8
f 10/23/8 14/16/8 8/21/8
f 12/25/8 14/16/8 10/23/8
f 2/1/8 14/16/8 12/25/8
f 4/4/2 2/2/1 1/1/1
f 1/1/1 3/3/2 4/4/2
f 6/8/3 4/6/2 3/5/2
f 3/5/2 5/7/3 6/8/3
f 8/4/4 6/2/3 5/1/3
f 5/1/3 7/3/4 8/4/4
f 10/2/5 8/10/4 7/9/4
f 7/9/4 9/1/5 10/2/5
f 12/14/6 10/12/5 9/11/5
f 9/11/5 11/13/6 12/14/6
f 2/2/1 12/10/6 11/9/6
f 11/9/6 1/1/1 2/2/1

